<svg height="100" width="100" fill="#757575" xmlns="http://www.w3.org/2000/svg" viewBox="0 0 232 232" fill-rule="evenodd" clip-rule="evenodd" shape-rendering="geometricPrecision" text-rendering="geometricPrecision" image-rendering="optimizeQuality"><defs><style>.fil0{fill:#757575;fill-rule:nonzero}</style></defs><path class="fil0" d="M27 27c37-36 96-36 132 0 31 31 36 79 14 115l52 52c9 9 9 23 0 31-8 9-22 9-31 0l-52-52c-36 22-84 17-115-14-36-36-36-95 0-132zm20 20c-25 26-25 67 0 92 26 26 67 26 92 0 26-25 26-66 0-92-25-25-66-25-92 0z"/><path class="fil0" d="M54 91c-1 10-16 9-15-1 1-14 6-26 16-35 9-10 21-15 35-16 10-1 11 14 1 15s-18 5-25 12-11 15-12 25z"/></svg>